<svg height="81" viewBox="0 0 81 81" width="81" xmlns="http://www.w3.org/2000/svg"><g fill="none" fill-rule="evenodd"><path d="m68.11 13c3.063 4.76 4.849 10.484 4.849 16.639 0 16.58-12.949 30.02-28.925 30.02-5.93 0-11.444-1.858-16.034-5.034 5.186 8.064 14.032 13.375 24.073 13.375 15.974 0 28.927-13.44 28.927-30.016 0-10.422-5.121-19.604-12.89-24.984" fill="#d58300"/><path d="m12.875 68a28.378 28.378 0 0 1 -4.715-16.203c.287-16.06 13.887-28.852 30.378-28.571 6.121.104 11.78 2 16.463 5.156-5.214-7.901-14.252-13.201-24.617-13.377-16.49-.28-30.092 12.51-30.379 28.568-.181 10.096 4.944 19.08 12.87 24.427" fill="#d58300"/><g fill="#636362"><path d="m68 68.613a28.741 28.741 0 0 1 -16.37 4.403c-16.143-.573-28.77-14.33-28.207-30.73a29.9 29.9 0 0 1 5.467-16.286c-8.033 5.047-13.517 13.943-13.87 24.252-.564 16.397 12.063 30.157 28.203 30.73 10.146.36 19.266-4.579 24.778-12.369"/><path d="m15 13a28.289 28.289 0 0 1 16.16-4.796c16.04.217 28.871 13.776 28.661 30.289-.078 6.13-1.947 11.804-5.08 16.507 7.869-5.257 13.124-14.33 13.256-24.708.21-16.51-12.621-30.073-28.657-30.29-10.084-.134-19.033 5.038-24.34 12.998"/></g></g></svg>